<svg width="156" height="52" viewBox="0 0 156 52" fill="none" xmlns="http://www.w3.org/2000/svg">
<path d="M20.344 32V14.744H34.264C34.872 14.744 35.432 14.896 35.944 15.2C36.456 15.504 36.864 15.912 37.168 16.424C37.472 16.92 37.624 17.472 37.624 18.08V22.736C37.624 23.344 37.472 23.904 37.168 24.416C36.864 24.928 36.456 25.336 35.944 25.64C35.432 25.928 34.872 26.072 34.264 26.072L23.512 26.096V32H20.344ZM23.8 22.88H34.12C34.2 22.88 34.272 22.856 34.336 22.808C34.4 22.76 34.432 22.696 34.432 22.616V18.2C34.432 18.12 34.4 18.056 34.336 18.008C34.272 17.944 34.2 17.912 34.12 17.912H23.8C23.72 17.912 23.648 17.944 23.584 18.008C23.536 18.056 23.512 18.12 23.512 18.2V22.616C23.512 22.696 23.536 22.76 23.584 22.808C23.648 22.856 23.72 22.88 23.8 22.88ZM39.3524 32V14.72H42.5204V21.752H53.8484V14.72H57.0164V32H53.8484V24.968H42.5204V32H39.3524ZM59.7904 32V18.056C59.7904 17.448 59.9424 16.896 60.2464 16.4C60.5504 15.888 60.9504 15.48 61.4464 15.176C61.9584 14.872 62.5184 14.72 63.1264 14.72H73.7104C74.3184 14.72 74.8784 14.872 75.3904 15.176C75.9024 15.48 76.3104 15.888 76.6144 16.4C76.9184 16.896 77.0704 17.448 77.0704 18.056V32H73.8784V26.192H62.9584V32H59.7904ZM62.9584 23.024H73.8784V18.2C73.8784 18.12 73.8464 18.056 73.7824 18.008C73.7184 17.944 73.6464 17.912 73.5664 17.912H63.2464C63.1664 17.912 63.0944 17.944 63.0304 18.008C62.9824 18.056 62.9584 18.12 62.9584 18.2V23.024ZM83.0689 32C82.4609 32 81.9009 31.848 81.3889 31.544C80.8929 31.24 80.4929 30.84 80.1889 30.344C79.8849 29.832 79.7329 29.272 79.7329 28.664V27.344H82.9009V28.52C82.9009 28.6 82.9249 28.672 82.9729 28.736C83.0369 28.784 83.1089 28.808 83.1889 28.808H93.5329C93.6129 28.808 93.6769 28.784 93.7249 28.736C93.7889 28.672 93.8209 28.6 93.8209 28.52V25.232C93.8209 25.152 93.7889 25.088 93.7249 25.04C93.6769 24.992 93.6129 24.968 93.5329 24.968H83.0689C82.4609 24.968 81.9009 24.816 81.3889 24.512C80.8929 24.208 80.4929 23.808 80.1889 23.312C79.8849 22.8 79.7329 22.232 79.7329 21.608V18.056C79.7329 17.448 79.8849 16.896 80.1889 16.4C80.4929 15.888 80.8929 15.48 81.3889 15.176C81.9009 14.872 82.4609 14.72 83.0689 14.72H93.6769C94.2849 14.72 94.8369 14.872 95.3329 15.176C95.8449 15.48 96.2529 15.888 96.5569 16.4C96.8609 16.896 97.0129 17.448 97.0129 18.056V19.376H93.8209V18.2C93.8209 18.12 93.7889 18.056 93.7249 18.008C93.6769 17.944 93.6129 17.912 93.5329 17.912H83.1889C83.1089 17.912 83.0369 17.944 82.9729 18.008C82.9249 18.056 82.9009 18.12 82.9009 18.2V21.488C82.9009 21.568 82.9249 21.632 82.9729 21.68C83.0369 21.728 83.1089 21.752 83.1889 21.752H93.6769C94.2849 21.752 94.8369 21.904 95.3329 22.208C95.8449 22.512 96.2529 22.92 96.5569 23.432C96.8609 23.928 97.0129 24.488 97.0129 25.112V28.664C97.0129 29.272 96.8609 29.832 96.5569 30.344C96.2529 30.84 95.8449 31.24 95.3329 31.544C94.8369 31.848 94.2849 32 93.6769 32H83.0689ZM99.6811 32V14.72H115.593V17.912H102.873V21.752H113.097V24.968H102.873V28.808H115.593V32H99.6811ZM125.368 32V25.376C125.368 24.752 125.52 24.192 125.824 23.696C126.128 23.2 126.528 22.808 127.024 22.52C127.52 22.216 128.072 22.064 128.68 22.064H139.048C139.128 22.064 139.192 22.04 139.24 21.992C139.304 21.928 139.336 21.856 139.336 21.776V18.152C139.336 18.072 139.304 18.008 139.24 17.96C139.192 17.896 139.128 17.864 139.048 17.864H128.8C128.72 17.864 128.648 17.896 128.584 17.96C128.536 18.008 128.512 18.072 128.512 18.152V19.328H125.368V18.032C125.368 17.408 125.52 16.848 125.824 16.352C126.128 15.856 126.528 15.464 127.024 15.176C127.52 14.872 128.072 14.72 128.68 14.72H139.168C139.776 14.72 140.328 14.872 140.824 15.176C141.336 15.464 141.736 15.856 142.024 16.352C142.328 16.848 142.48 17.408 142.48 18.032V21.92C142.48 22.512 142.328 23.064 142.024 23.576C141.736 24.072 141.336 24.472 140.824 24.776C140.328 25.08 139.776 25.232 139.168 25.232H128.8C128.72 25.232 128.648 25.264 128.584 25.328C128.536 25.376 128.512 25.44 128.512 25.52V28.568C128.512 28.648 128.536 28.72 128.584 28.784C128.648 28.832 128.72 28.856 128.8 28.856H142.48V32H125.368Z" fill="white"/>
<path d="M0 0H-2L0 -2V0ZM156 2H0V-2H156V2ZM2 0V52H-2V0H2Z" fill="white" mask="url(#path-1-inside-1_84_983)"/>
</svg>
